<svg id="visual" viewBox="0 0 1500 400" width="1500" height="400" xmlns="http://www.w3.org/2000/svg" xmlns:xlink="http://www.w3.org/1999/xlink" version="1.1"><rect x="0" y="0" width="1500" height="400" fill="#DF374B"></rect><defs><linearGradient id="grad1_0" x1="73.3%" y1="100%" x2="100%" y2="0%"><stop offset="-25%" stop-color="#df374b" stop-opacity="1"></stop><stop offset="125%" stop-color="#df374b" stop-opacity="1"></stop></linearGradient></defs><defs><linearGradient id="grad2_0" x1="0%" y1="100%" x2="26.7%" y2="0%"><stop offset="-25%" stop-color="#df374b" stop-opacity="1"></stop><stop offset="125%" stop-color="#df374b" stop-opacity="1"></stop></linearGradient></defs><g transform="translate(1500, 400)"><path d="M-400 0C-385 -27 -369.9 -54 -365.6 -83.4C-361.3 -112.9 -367.6 -144.6 -360.4 -173.6C-353.1 -202.5 -332.3 -228.5 -304.9 -243.2C-277.5 -257.8 -243.7 -261.1 -219.5 -275.2C-195.3 -289.3 -180.7 -314.2 -160.1 -332.5C-139.5 -350.7 -112.7 -362.3 -85 -372.4C-57.3 -382.6 -28.6 -391.3 0 -400L0 0Z" fill="#EF4B55"></path></g><g transform="translate(0, 0)"><path d="M400 0C400 31 400 61.9 386.1 88.1C372.2 114.3 344.4 135.7 322.5 155.3C300.7 174.9 284.8 192.6 276 220.1C267.1 247.5 265.3 284.7 249.4 312.7C233.5 340.8 203.5 359.7 171 355C138.4 350.3 103.2 322.1 74.3 325.6C45.4 329.2 22.7 364.6 0 400L0 0Z" fill="#EF4B55"></path></g></svg>